<svg xmlns="http://www.w3.org/2000/svg" xmlns:xlink="http://www.w3.org/1999/xlink" id="Layer_1" width="500" height="600" x="0" y="0" enable-background="new -249 114 500 600" version="1.1" viewBox="-249 114 500 600" xml:space="preserve"><switch><g><title>Juice Shop Logo</title><g><path fill="#D33718" d="M-87.2,538.5c-8.8,2.6-51.6,34.9-59.6,48c-9.6,15.5-81.8,49.9-70.1,63.9c17.4,20.9,124.5-4.1,187.8,2.6 c61.8,6.6,61.3,27.5,105.1,24c37.8-3.1,12.4-18.4,83.8-38.1c32.1-8.9,53-11.4,60.7-28.3c8-17.9-4.4-38.8-5.4-40.3 c-6.6-10.7-21.6-26.4-106.2-36C55,528.1-50.4,527.6-87.2,538.5z"/><path fill="#B52516" d="M66.7,679.4C66.7,679.4,66.7,679.4,66.7,679.4c-16.9,0-26.9-4.3-38.4-9.2c-13.1-5.6-27.9-12-57.6-15.2 c-7.4-0.8-15.7-1.2-25.3-1.2c-21.3,0-45,1.9-67.8,3.8c-20.9,1.7-40.6,3.3-56.9,3.3c-21.8,0-33.9-2.8-39.2-9.2 c-1.4-1.7-2-3.7-1.7-5.9c1.4-9.9,20.6-22.8,40.9-36.4c13.4-9,27.2-18.2,30.7-23.9c8.2-13.5,51.1-46,60.7-48.9 c18.6-5.5,56.8-8.7,104.7-8.7c33.8,0,68.2,1.6,92.2,4.4c80.4,9.1,99.6,23.8,107.7,36.9c0.1,0.2,14.3,22.4,5.5,42.2 c-6.8,15-22.9,19.2-47.2,25.5c-4.7,1.2-9.6,2.5-14.8,3.9c-38.6,10.6-48.4,19.9-55.6,26.6c-6.2,5.8-10.7,10.1-28.5,11.5 C72.8,679.2,69.7,679.4,66.7,679.4z M-54.6,649.8c9.7,0,18.1,0.4,25.7,1.2c30.3,3.2,46.1,10,58.8,15.5c11.6,5,20.7,8.9,36.8,8.9 c0,0,0,0,0,0c2.9,0,5.9-0.1,9.1-0.4c16.4-1.3,20.3-5,26.1-10.5c7.5-7,17.8-16.7,57.3-27.6c5.3-1.5,10.2-2.7,14.9-4 c23.2-6,38.5-10,44.5-23.2c7.8-17.5-5.1-38.2-5.2-38.4c-7.6-12.4-26-26.2-104.8-35.1c-23.8-2.7-58.1-4.4-91.7-4.4 c-47.6,0-85.3,3.1-103.6,8.5c-8.6,2.5-50.9,34.8-58.5,47.1c-4,6.4-17.5,15.5-31.9,25.2c-16.9,11.4-38,25.5-39.2,33.6 c-0.2,1.1,0.1,2,0.8,2.8c4.4,5.2,16.2,7.8,36.1,7.8c16.1,0,35.8-1.6,56.6-3.3C-99.8,651.7-76.1,649.8-54.6,649.8z"/></g><path fill="#E06027" d="M-70.5,541.4c-7.8,2.3-33,30.6-40.1,42c-8.5,13.6-67.6,39.2-57.3,51.6c15.3,18.3,76-8.8,131.7-2.8 C18.3,638,30.3,660.1,68.8,657c33.3-2.6,15.3-10.3,78.3-27.6c28.3-7.9,46.7-9.9,53.5-24.8c7.1-15.5-3.9-34-4.7-35.3 c-5.8-9.4-19-23.2-93.5-31.5C54.8,532.3-38,531.9-70.5,541.4z"/><path fill="#D6BA32" d="M-50,561l-24.2-271.3h266L167.6,561L58.4,591.6L-50,561z"/><path fill="#D33718" d="M-39.8,555.2l1.4,1.1l2.8,0.6l-0.5,3.1l1.4,5.3l-3.2-0.9l-8.6-2.3l-0.8-0.9l1.9-1.3l-0.1-3.3 c0,0,3.7-0.5,4-0.5C-41.2,556-39.8,555.2-39.8,555.2z"/><path fill="#FFDA3E" d="M59.4,570.4l87.8-24.2l20.6-232.3H59.4V570.4z"/><path fill="#FFF" d="M164.1,252.6"/><polygon fill="#EBEBEB" points="22.5 348.5 22.5 487.8 -29 473.4 -29 504.5 48.3 526 48.3 348.5"/><polygon fill="#FFF" points="151.7 379.6 154.5 348.5 69.8 348.5 69.8 463.8 122.6 454.4 121.3 481.2 69.8 494.9 69.8 525.9 141.6 507.1 148.4 420.7 95.6 427.2 95.6 379.6"/><polygon fill="#E06027" points="-44.2 557.8 -39.9 557 -37.8 558.4 -38 560.2 -36.5 565.3 -40.7 564 -44.6 563.2 -44 560.5"/><polygon fill="#CEAA36" points="-73.7 288.5 59.9 288.1 6.1 216"/><polygon fill="#D19D34" points="-3 203.7 -1 178.8 -7.1 179.2 -7.5 204.1 -73.9 288.8 6.1 216"/><polygon fill="#D6BA32" points="133 213.4 131 195.5 -1 178.8 -3 203.7 59.7 288.4 190.9 288.4"/><g><g><defs><path id="SVGID_1_" d="M134.8,251.7l-14.2,14.7c-1.9,1.9-5,2.7-8.9,2.3c-4.1-0.4-8.9-2.2-13.7-5.3 c-10.9-6.9-17.7-17.7-15.4-24.2c0.3-0.9,0.8-1.7,1.4-2.3l14.2-14.7c-0.6,0.6-1.1,1.4-1.4,2.3c-2.4,6.5,4.5,17.4,15.4,24.2 c4.8,3.1,9.6,4.8,13.7,5.3C129.8,254.4,132.9,253.6,134.8,251.7z"/></defs><clipPath id="SVGID_2_"><use overflow="visible" xlink:href="#SVGID_1_"/></clipPath><g clip-path="url(#SVGID_2_)"><path fill="#6E1D0C" d="M134.8,251.7l-14.2,14.7c-1.5,1.6-4,2.4-6.9,2.4l14.2-14.7C130.9,254.1,133.3,253.3,134.8,251.7"/><path fill="#721E0D" d="M128,254.1l-14.2,14.7c-0.6,0-1.3,0-2-0.1c-4.1-0.4-8.9-2.2-13.7-5.3c-7.2-4.6-12.7-10.9-14.8-16.5 l14.2-14.7c2.2,5.6,7.6,11.9,14.8,16.5c4.8,3.1,9.6,4.8,13.7,5.3C126.7,254,127.3,254.1,128,254.1"/><path fill="#6E1D0C" d="M97.5,232.2l-14.2,14.7c-1.1-2.9-1.3-5.5-0.5-7.7c0.3-0.9,0.8-1.7,1.4-2.3l14.2-14.7 c-0.6,0.6-1.1,1.4-1.4,2.3C96.1,226.6,96.4,229.3,97.5,232.2"/></g></g></g><g><path fill="#D23718" d="M107.2,219.9c4.1,0.4,8.9,2.2,13.7,5.3c10.9,6.9,17.7,17.7,15.4,24.2c-1.3,3.6-5.2,5.1-10.3,4.6 c-4.1-0.4-8.9-2.2-13.7-5.3c-10.9-6.9-17.7-17.7-15.4-24.2C98.2,220.8,102.1,219.3,107.2,219.9z"/></g></g></switch></svg>